<?xml version="1.0" encoding="UTF-8"?><svg xmlns="http://www.w3.org/2000/svg" viewBox="0 0 217.89 84.27"><defs><style>.d{fill:#424242;}</style></defs><g id="a"/><g id="b"><g id="c"><path class="d" d="M0,65.54V0H25.75l13.01,13.11v52.43h-10.67V17.42L11.98,1.31h-1.31V65.54H0Zm41.42,0V13.11L54.43,0h25.84V10.67h-21.44l-6.74,6.74h28.09v10.67h-28.09v37.45h-10.67Zm41.51,0V17.42h10.67v48.13h-10.67Zm0-54.87V0h10.67V10.67h-10.67Zm13.26,6.74h25.75l13.01,13.11v39.32l-14.51,14.42h-24.25v-10.67h19.94l8.15-8.15h-15.07l-13.01-13.11V17.42Zm10.67,1.31v29.31l16.1,16.1h1.31v-29.31l-16.1-16.1h-1.31Zm30.75,46.81V0h10.67V17.42h15.07l13.01,13.11v35.02h-10.67v-30.71l-16.1-16.1h-1.31v46.81h-10.67Zm41.42-13.11V0h10.67V17.42h28.18v10.67h-28.18v20.04l6.74,6.74h21.44v10.67h-25.84l-13.01-13.11Z"/><path class="d" d="M205.63,13.3V.19h11.43V13.3h-11.43Zm0,0V.19h11.43V13.3h-11.43Zm0,0V.19h11.43V13.3h-11.43Zm.36-.36h10.71V.54h-10.71V12.94Zm0,0h10.71V.54h-10.71V12.94Zm0,0h10.71V.54h-10.71V12.94Zm.74-.71V1.28h7.01l2.42,2.42v2.68h-2.07l2.07,2.07v3.78h-1.79v-1.45l-4.39-4.39h-.36v5.84h-2.91Zm2.91-6.2h4.75l-4.39-4.39h-.36V6.03Z"/></g></g></svg>